<?xml version="1.0" encoding="utf-8"?>
<!-- Generator: Adobe Illustrator 21.0.2, SVG Export Plug-In . SVG Version: 6.00 Build 0)  -->
<svg version="1.1" id="Layer_1" xmlns="http://www.w3.org/2000/svg" xmlns:xlink="http://www.w3.org/1999/xlink" x="0px" y="0px"
	 viewBox="0 0 841.1 1136.2" style="enable-background:new 0 0 841.1 1136.2;" xml:space="preserve">
<style type="text/css">
	.st0{fill:#8DC63F;}
	.st1{fill:none;stroke:#7F3F98;stroke-width:17.4497;stroke-miterlimit:10;}
	.st2{fill:none;stroke:#F1F2F2;stroke-width:12.1434;stroke-miterlimit:10;}
	.st3{fill:#39B54A;}
</style>
<path class="st0" d="M163.4,76.1c0,0,560.2-13.2,587.2,19.2c1.2,11.3-10,403.4,12.3,423.9c-13.5-2.3-263.6-12.5-297.2-7.9
	c-4.5-9.6-33.1-106.6-39.8-106.5c1.4,3.5-17.8,78-28.2,103.3c-14.1,2.5-294.5-4.9-300.2-16.1C91.9,481.1,130.3,80.8,163.4,76.1z"/>
<path class="st1" d="M45.8,527.4"/>
<path class="st2" d="M263.7,156.9c0,0-23.2-62.1-62.1-22.5c-8.1,22.7,0.9,262.1-1.5,273c-2.5,11-16.2,58.8-27.5,57.5
	c-11.3-1.3-24.1-9.6-31-27.1c-6.9-17.5,5.7-85.5,5.7-85.5"/>
<g>
	<line class="st2" x1="242.7" y1="445.7" x2="307.2" y2="114.4"/>
	<path class="st2" d="M363.3,114.3c0,0-49.2,261-35.2,328.8"/>
	<line class="st2" x1="333.3" y1="263.3" x2="282.4" y2="242.1"/>
</g>
<path class="st2" d="M471.8,216.1c-6-3.9-94.4-12.8-94.4-12.8s94,14.6,102.3,6.8"/>
<path class="st2" d="M400.6,275.1c0,0,34.7,16.4,33.7,47c0.3,8.3-10,33.4-33.7,42.5c-6.8-5.4-31.2-11.1-31.1-44.7
	C368.1,314.8,374.3,273,400.6,275.1z"/>
<path class="st2" d="M451.6,378.8c0,0,21.6-103,14.4-115.6c5-7.1,18.4-18,25.5-6.4c7.1,11.6,4.2,51.7-11.6,52
	c-15.8,0.3-15.8,0.3-15.8,0.3s30.6,3.2,35.9,67.6"/>
<g>
	<path class="st2" d="M479.7,130.3c0,0,107.6-2.1,130.8,10.9"/>
	<path class="st2" d="M540.5,444c0,0,5.8-302.3,18.5-308.4"/>
</g>
<path class="st2" d="M707.9,151.1c0,0-8.7-33.4-40.6-29.3c-7.7,4.4-42.7,46-25.4,78.5s39.5,153.3,46.4,178.6
	c7,25.3,8.4,65.4-20.9,64.3c-28.2-5.8-48.3-2.1-56.9-28.5s0-100.5,0-100.5"/>
<path class="st3" d="M97.4,514.9c0,0,282.8,9.9,299.4,7.3c4.6,7.5-12,524.1-30.1,537.7c-14.8,4.6-306.8,8.3-312.3,0
	S89.4,514,97.4,514.9z"/>
<path class="st3" d="M466,525.9c0,0,154.4-4.5,297.3,11.4c5.4,4.5,6.7,462.3,16.4,478.7c-16.1,11.9-34,22.2-57.2,23.1
	c-23.2,0.9-242.2,10.5-259.8,17.4c-6.6-16.8,3.5-515.9,3.1-522.4C465.7,531,466,525.9,466,525.9z"/>
<path class="st2" d="M120.1,1009.8c0,0,53.7-411,45-423.5c13.8-2.5,59.8,20.2,45.7,44c-14.2,23.7-33.3,29.5-44,23.7"/>
<g>
	<path class="st2" d="M170.9,1008.8c0,0,85.3-424,88.3-428.5c1.1-1.7,0.9,58.6,0.3,133.8c-0.9,121.2-2.6,281.2-0.3,282.4"/>
	<line class="st2" x1="236" y1="717" x2="259.5" y2="714"/>
</g>
<path class="st2" d="M293.9,999.8c0,0,41.9-395,36.5-400.4s67.5,97.4,67.5,97.4"/>
<g>
	<line class="st2" x1="459.3" y1="698.1" x2="513.1" y2="742.2"/>
	<path class="st2" d="M528.2,583c0,0-41.5,390.7-30.6,408.4"/>
</g>
<g>
	<path class="st2" d="M560.4,585.3c0,0,90.6,12.5,89.1,7.1"/>
	<path class="st2" d="M571.1,982.2c0,0,47.7-374.8,45.8-388.5"/>
</g>
<path class="st2" d="M716.2,617.1c0,0,6.3-35.8-21-31.8c-10.6,14.6-22.5,17.3-23.7,82.2c4.5,18.2,13.7,170.2,19,200.5
	s9,102.9-19,108.2c-28.1,5.3-48.6-6-44.4-66.8"/>
</svg>
